<svg xmlns="http://www.w3.org/2000/svg" width="75" viewBox="0 0 75 75" height="75" version="1.0"><defs><clipPath id="a"><path d="M 38 4.949219 L 71.960938 4.949219 L 71.960938 73.949219 L 38 73.949219 Z M 38 4.949219"/></clipPath><clipPath id="b"><path d="M 2.960938 40 L 37 40 L 37 70 L 2.960938 70 Z M 2.960938 40"/></clipPath><clipPath id="c"><path d="M 2.960938 4.949219 L 37 4.949219 L 37 34 L 2.960938 34 Z M 2.960938 4.949219"/></clipPath></defs><g clip-path="url(#a)"><path fill="#666666" d="M 59.71875 38.335938 C 60.332031 38.335938 60.832031 38.835938 60.832031 39.449219 L 60.832031 48.351562 L 63.058594 48.351562 L 63.058594 41.675781 C 63.058594 41.0625 63.558594 40.5625 64.171875 40.5625 C 64.785156 40.5625 65.285156 41.0625 65.285156 41.675781 L 65.285156 48.351562 L 67.511719 48.351562 L 67.511719 43.902344 C 67.511719 43.289062 68.011719 42.789062 68.625 42.789062 C 69.238281 42.789062 69.738281 43.289062 69.738281 43.902344 L 69.738281 57.316406 C 69.738281 57.835938 69.613281 58.351562 69.382812 58.8125 L 67.511719 62.558594 L 67.511719 65.046875 L 49.703125 65.046875 L 49.703125 62.453125 L 46.851562 58.648438 C 46.503906 58.183594 46.28125 57.632812 46.210938 57.0625 L 45.421875 50.75 C 45.285156 49.648438 44.886719 48.578125 44.269531 47.65625 L 43.128906 45.941406 C 43.0625 45.839844 43.027344 45.726562 43.027344 45.609375 C 43.027344 45.28125 43.292969 45.015625 43.621094 45.015625 C 45.972656 45.015625 48.011719 46.6875 48.472656 48.992188 L 49.90625 56.144531 L 52.617188 56.144531 L 53.570312 54.242188 C 53.953125 53.472656 54.15625 52.613281 54.15625 51.753906 L 54.15625 28.320312 C 54.15625 27.707031 54.65625 27.207031 55.269531 27.207031 C 55.882812 27.207031 56.382812 27.707031 56.382812 28.320312 L 56.382812 48.351562 L 58.609375 48.351562 L 58.609375 39.449219 C 58.609375 38.835938 59.109375 38.335938 59.71875 38.335938 Z M 69.738281 71.722656 L 47.480469 71.722656 L 47.480469 67.273438 L 69.738281 67.273438 Z M 54.898438 25.019531 C 51.695312 22.855469 49.191406 19.847656 47.664062 16.289062 C 47.539062 15.996094 47.480469 15.691406 47.480469 15.269531 C 47.480469 14.660156 47.726562 14.066406 48.15625 13.636719 L 49.703125 12.089844 C 50.292969 11.5 51.34375 11.5 51.929688 12.089844 L 53.890625 14.050781 C 54.058594 14.222656 54.15625 14.445312 54.15625 14.6875 L 54.15625 14.835938 C 54.15625 15.179688 53.964844 15.488281 53.65625 15.640625 C 52.589844 16.175781 51.929688 17.242188 51.929688 18.433594 L 51.929688 18.582031 C 51.929688 19.417969 52.257812 20.203125 52.847656 20.796875 L 53.890625 21.839844 C 54.480469 22.429688 55.269531 22.757812 56.105469 22.757812 L 56.25 22.757812 C 57.441406 22.757812 58.511719 22.09375 59.046875 21.03125 C 59.199219 20.722656 59.507812 20.53125 59.851562 20.53125 L 60 20.53125 C 60.242188 20.53125 60.464844 20.625 60.636719 20.796875 L 62.597656 22.757812 C 62.890625 23.046875 63.058594 23.457031 63.058594 23.871094 C 63.058594 24.28125 62.890625 24.691406 62.597656 24.980469 L 61.050781 26.53125 C 60.367188 27.210938 59.246094 27.394531 58.382812 26.964844 L 58.285156 26.917969 C 57.753906 25.777344 56.609375 24.980469 55.269531 24.980469 C 55.144531 24.980469 55.019531 25.003906 54.898438 25.019531 Z M 44.140625 31.660156 C 42.296875 31.660156 40.800781 30.164062 40.800781 28.320312 L 40.800781 10.515625 C 40.800781 8.671875 42.296875 7.175781 44.140625 7.175781 L 66.398438 7.175781 C 68.242188 7.175781 69.738281 8.671875 69.738281 10.515625 L 69.738281 28.320312 C 69.738281 30.164062 68.242188 31.660156 66.398438 31.660156 L 58.609375 31.660156 L 58.609375 29.339844 C 58.871094 29.390625 59.140625 29.433594 59.417969 29.433594 C 60.605469 29.433594 61.777344 28.953125 62.625 28.105469 L 64.171875 26.554688 C 64.890625 25.839844 65.285156 24.882812 65.285156 23.871094 C 65.285156 22.855469 64.890625 21.898438 64.171875 21.183594 L 62.210938 19.222656 C 61.621094 18.632812 60.832031 18.304688 60 18.304688 L 59.851562 18.304688 C 58.660156 18.304688 57.589844 18.964844 57.054688 20.03125 C 56.902344 20.339844 56.59375 20.53125 56.25 20.53125 L 56.105469 20.53125 C 55.859375 20.53125 55.636719 20.433594 55.464844 20.265625 L 54.421875 19.222656 C 54.25 19.046875 54.15625 18.828125 54.15625 18.582031 L 54.15625 18.433594 C 54.15625 18.09375 54.347656 17.78125 54.65625 17.632812 C 55.722656 17.097656 56.382812 16.027344 56.382812 14.835938 L 56.382812 14.6875 C 56.382812 13.851562 56.054688 13.066406 55.464844 12.476562 L 53.503906 10.515625 C 52.070312 9.078125 49.566406 9.078125 48.128906 10.515625 L 46.582031 12.0625 C 45.734375 12.910156 45.253906 14.078125 45.253906 15.375 C 45.253906 15.992188 45.375 16.597656 45.617188 17.160156 C 47.164062 20.765625 49.601562 23.859375 52.707031 26.203125 C 52.230469 26.78125 51.929688 27.511719 51.929688 28.320312 L 51.929688 31.660156 Z M 66.398438 33.886719 C 69.46875 33.886719 71.960938 31.390625 71.960938 28.320312 L 71.960938 10.515625 C 71.960938 7.445312 69.46875 4.949219 66.398438 4.949219 L 44.140625 4.949219 C 41.070312 4.949219 38.574219 7.445312 38.574219 10.515625 L 38.574219 28.320312 C 38.574219 31.390625 41.070312 33.886719 44.140625 33.886719 L 51.929688 33.886719 L 51.929688 51.753906 C 51.929688 52.261719 51.8125 52.765625 51.589844 53.222656 L 50.65625 48.554688 C 49.992188 45.214844 47.03125 42.789062 43.621094 42.789062 C 42.066406 42.789062 40.800781 44.054688 40.800781 45.609375 C 40.800781 46.167969 40.964844 46.710938 41.273438 47.175781 L 42.421875 48.890625 C 42.84375 49.527344 43.117188 50.265625 43.214844 51.023438 L 44 57.335938 C 44.121094 58.296875 44.492188 59.207031 45.070312 59.980469 L 47.480469 63.191406 L 47.480469 65.046875 L 45.253906 65.046875 L 45.253906 73.949219 L 71.960938 73.949219 L 71.960938 65.046875 L 69.738281 65.046875 L 69.738281 63.085938 L 71.375 59.808594 C 71.757812 59.039062 71.960938 58.179688 71.960938 57.316406 L 71.960938 43.902344 C 71.960938 42.058594 70.46875 40.5625 68.625 40.5625 C 68.183594 40.5625 67.765625 40.652344 67.378906 40.804688 C 66.996094 39.390625 65.710938 38.335938 64.171875 38.335938 C 63.734375 38.335938 63.316406 38.429688 62.929688 38.582031 C 62.546875 37.164062 61.257812 36.109375 59.71875 36.109375 C 59.328125 36.109375 58.960938 36.195312 58.609375 36.316406 L 58.609375 33.886719 L 66.398438 33.886719"/></g><g clip-path="url(#b)"><path fill="#666666" d="M 34.125 63.933594 C 34.125 65.777344 32.628906 67.273438 30.785156 67.273438 L 8.527344 67.273438 C 6.683594 67.273438 5.1875 65.777344 5.1875 63.933594 L 5.1875 46.128906 C 5.1875 44.285156 6.683594 42.789062 8.527344 42.789062 L 30.785156 42.789062 C 32.628906 42.789062 34.125 44.285156 34.125 46.128906 Z M 30.785156 40.5625 L 8.527344 40.5625 C 5.457031 40.5625 2.960938 43.058594 2.960938 46.128906 L 2.960938 63.933594 C 2.960938 67.003906 5.457031 69.5 8.527344 69.5 L 30.785156 69.5 C 33.855469 69.5 36.347656 67.003906 36.347656 63.933594 L 36.347656 46.128906 C 36.347656 43.058594 33.855469 40.5625 30.785156 40.5625"/></g><g clip-path="url(#c)"><path fill="#666666" d="M 34.125 28.320312 C 34.125 30.164062 32.628906 31.660156 30.785156 31.660156 L 8.527344 31.660156 C 6.683594 31.660156 5.1875 30.164062 5.1875 28.320312 L 5.1875 10.515625 C 5.1875 8.671875 6.683594 7.175781 8.527344 7.175781 L 30.785156 7.175781 C 32.628906 7.175781 34.125 8.671875 34.125 10.515625 Z M 30.785156 4.949219 L 8.527344 4.949219 C 5.457031 4.949219 2.960938 7.445312 2.960938 10.515625 L 2.960938 28.320312 C 2.960938 31.390625 5.457031 33.886719 8.527344 33.886719 L 30.785156 33.886719 C 33.855469 33.886719 36.347656 31.390625 36.347656 28.320312 L 36.347656 10.515625 C 36.347656 7.445312 33.855469 4.949219 30.785156 4.949219"/></g><path fill="#666666" d="M 19.65625 22.757812 C 18.429688 22.757812 17.429688 21.757812 17.429688 20.53125 L 17.429688 18.304688 C 17.429688 17.078125 18.429688 16.078125 19.65625 16.078125 C 20.882812 16.078125 21.882812 17.078125 21.882812 18.304688 L 21.882812 20.53125 C 21.882812 21.757812 20.882812 22.757812 19.65625 22.757812 Z M 19.65625 9.402344 C 14.746094 9.402344 10.753906 13.398438 10.753906 18.304688 L 10.753906 20.53125 C 10.753906 25.4375 14.746094 29.433594 19.65625 29.433594 L 19.65625 27.207031 C 15.972656 27.207031 12.980469 24.210938 12.980469 20.53125 L 12.980469 18.304688 C 12.980469 14.621094 15.972656 11.628906 19.65625 11.628906 C 23.339844 11.628906 26.332031 14.621094 26.332031 18.304688 L 26.332031 23.871094 C 26.332031 24.480469 25.832031 24.980469 25.21875 24.980469 C 24.609375 24.980469 24.109375 24.480469 24.109375 23.871094 L 24.109375 18.304688 C 24.109375 15.847656 22.113281 13.851562 19.65625 13.851562 C 17.199219 13.851562 15.203125 15.847656 15.203125 18.304688 L 15.203125 20.53125 C 15.203125 22.988281 17.199219 24.980469 19.65625 24.980469 C 20.492188 24.980469 21.261719 24.738281 21.929688 24.339844 C 22.160156 25.957031 23.539062 27.207031 25.21875 27.207031 C 27.0625 27.207031 28.558594 25.710938 28.558594 23.871094 L 28.558594 18.304688 C 28.558594 13.398438 24.5625 9.402344 19.65625 9.402344"/><path fill="#666666" d="M 14.277344 55.679688 L 9.640625 59.390625 L 9.640625 51.039062 Z M 22.667969 54.894531 C 21.058594 56.503906 18.25 56.503906 16.644531 54.894531 L 11.214844 49.464844 L 28.097656 49.464844 Z M 25.035156 55.683594 L 29.671875 51.039062 L 29.671875 59.390625 Z M 15.945312 57.199219 C 17.027344 57.957031 18.308594 58.371094 19.65625 58.371094 C 21.003906 58.371094 22.285156 57.957031 23.367188 57.199219 L 27.613281 60.59375 L 11.699219 60.59375 Z M 7.414062 62.820312 L 31.898438 62.820312 L 31.898438 47.242188 L 7.414062 47.242188 L 7.414062 62.820312"/></svg>