<svg xmlns="http://www.w3.org/2000/svg" width="75" viewBox="0 0 75 75" height="75" version="1.0"><defs><clipPath id="a"><path d="M 4.125 4.125 L 70.875 4.125 L 70.875 70.875 L 4.125 70.875 Z M 4.125 4.125"/></clipPath></defs><g clip-path="url(#a)"><path fill="#666666" d="M 61.195312 36.832031 C 63.09375 34.976562 64.199219 32.433594 64.199219 29.710938 C 64.199219 24.191406 59.707031 19.699219 54.1875 19.699219 C 51.457031 19.699219 48.902344 20.792969 47.027344 22.71875 C 46.226562 22.15625 45.386719 21.667969 44.503906 21.261719 C 46.40625 19.402344 47.511719 16.859375 47.511719 14.136719 C 47.511719 8.617188 43.019531 4.125 37.5 4.125 C 31.980469 4.125 27.488281 8.617188 27.488281 14.136719 C 27.488281 16.863281 28.59375 19.402344 30.492188 21.261719 C 29.613281 21.667969 28.773438 22.15625 27.972656 22.71875 C 26.097656 20.789062 23.542969 19.699219 20.8125 19.699219 C 15.292969 19.699219 10.800781 24.191406 10.800781 29.710938 C 10.800781 32.4375 11.90625 34.976562 13.804688 36.832031 C 7.949219 39.535156 4.125 45.386719 4.125 51.960938 L 4.125 61.976562 C 4.125 62.589844 4.625 63.085938 5.238281 63.085938 L 21.152344 63.085938 C 20.929688 64.179688 20.8125 65.292969 20.8125 66.425781 L 20.8125 69.761719 C 20.8125 70.375 21.3125 70.875 21.925781 70.875 L 53.074219 70.875 C 53.6875 70.875 54.1875 70.375 54.1875 69.761719 L 54.1875 66.425781 C 54.1875 65.292969 54.070312 64.179688 53.847656 63.085938 L 69.761719 63.085938 C 70.375 63.085938 70.875 62.589844 70.875 61.976562 L 70.875 51.960938 C 70.875 45.382812 67.050781 39.535156 61.195312 36.832031 Z M 54.1875 21.925781 C 58.480469 21.925781 61.976562 25.417969 61.976562 29.710938 C 61.976562 32.355469 60.652344 34.792969 58.429688 36.234375 C 57.167969 37.0625 55.699219 37.5 54.1875 37.5 C 54.019531 37.5 53.855469 37.488281 53.621094 37.476562 C 53.574219 37.476562 53.527344 37.46875 53.476562 37.464844 C 53.433594 37.457031 53.289062 37.433594 53.246094 37.433594 L 53.089844 37.414062 C 53.027344 37.40625 52.964844 37.398438 52.808594 37.367188 C 52.554688 37.328125 52.316406 37.273438 52.019531 37.1875 C 51.914062 37.160156 51.808594 37.125 51.714844 37.09375 C 51.066406 36.871094 50.472656 36.582031 49.941406 36.234375 C 47.722656 34.792969 46.398438 32.355469 46.398438 29.710938 C 46.398438 29.167969 46.476562 28.628906 46.589844 28.101562 C 46.839844 26.945312 47.328125 25.839844 48.066406 24.902344 C 49.550781 23.011719 51.78125 21.925781 54.1875 21.925781 Z M 29.710938 14.136719 C 29.710938 9.84375 33.207031 6.351562 37.5 6.351562 C 41.792969 6.351562 45.289062 9.84375 45.289062 14.136719 C 45.289062 16.78125 43.964844 19.21875 41.742188 20.660156 C 39.238281 22.304688 35.832031 22.3125 33.3125 20.691406 C 33.292969 20.679688 33.273438 20.671875 33.253906 20.660156 C 31.035156 19.21875 29.710938 16.78125 29.710938 14.136719 Z M 32.515625 22.816406 C 32.652344 22.894531 32.800781 22.953125 32.945312 23.023438 C 33.136719 23.125 33.324219 23.222656 33.523438 23.308594 C 33.703125 23.386719 33.890625 23.449219 34.074219 23.515625 C 34.34375 23.617188 34.613281 23.710938 34.890625 23.789062 C 34.941406 23.800781 34.992188 23.808594 35.042969 23.820312 C 35.84375 24.027344 36.664062 24.148438 37.5 24.148438 C 38.339844 24.148438 39.160156 24.027344 39.960938 23.820312 C 40.007812 23.808594 40.058594 23.800781 40.105469 23.789062 C 40.386719 23.714844 40.660156 23.617188 40.929688 23.515625 C 41.113281 23.449219 41.296875 23.386719 41.476562 23.308594 C 41.675781 23.222656 41.863281 23.125 42.058594 23.023438 C 42.199219 22.953125 42.347656 22.894531 42.484375 22.8125 C 43.609375 23.222656 44.671875 23.777344 45.664062 24.460938 C 45.640625 24.503906 45.621094 24.546875 45.597656 24.585938 C 45.386719 24.941406 45.191406 25.300781 45.027344 25.675781 C 45.023438 25.6875 45.015625 25.703125 45.011719 25.714844 C 44.851562 26.082031 44.71875 26.464844 44.601562 26.847656 C 44.582031 26.921875 44.558594 26.996094 44.539062 27.066406 C 44.433594 27.453125 44.351562 27.84375 44.289062 28.238281 C 44.28125 28.3125 44.269531 28.390625 44.261719 28.46875 C 44.210938 28.882812 44.175781 29.296875 44.175781 29.710938 C 44.175781 30.101562 44.203125 30.484375 44.246094 30.863281 C 44.261719 30.984375 44.28125 31.101562 44.300781 31.21875 C 44.339844 31.484375 44.386719 31.742188 44.449219 32.003906 C 44.480469 32.132812 44.511719 32.257812 44.546875 32.386719 C 44.617188 32.640625 44.699219 32.890625 44.789062 33.136719 C 44.828125 33.246094 44.863281 33.359375 44.910156 33.46875 C 45.050781 33.8125 45.203125 34.152344 45.378906 34.480469 C 45.390625 34.5 45.40625 34.523438 45.417969 34.542969 C 45.585938 34.847656 45.773438 35.144531 45.972656 35.429688 C 46.046875 35.535156 46.125 35.632812 46.203125 35.734375 C 46.351562 35.933594 46.511719 36.128906 46.675781 36.320312 C 46.769531 36.425781 46.867188 36.527344 46.964844 36.628906 C 47.027344 36.695312 47.085938 36.769531 47.152344 36.832031 C 47.089844 36.863281 47.035156 36.902344 46.976562 36.929688 C 46.410156 37.199219 45.859375 37.496094 45.328125 37.828125 C 45.308594 37.839844 45.289062 37.847656 45.269531 37.863281 C 45.257812 37.84375 45.242188 37.832031 45.226562 37.816406 C 45.144531 37.714844 45.054688 37.625 44.96875 37.527344 C 44.789062 37.324219 44.609375 37.125 44.417969 36.941406 C 44.304688 36.832031 44.1875 36.734375 44.070312 36.632812 C 43.890625 36.472656 43.707031 36.320312 43.515625 36.175781 C 43.386719 36.074219 43.25 35.984375 43.117188 35.894531 C 42.925781 35.765625 42.730469 35.640625 42.53125 35.523438 C 42.390625 35.441406 42.246094 35.363281 42.101562 35.285156 C 41.894531 35.179688 41.683594 35.082031 41.46875 34.988281 C 41.320312 34.925781 41.171875 34.863281 41.019531 34.804688 C 40.796875 34.722656 40.566406 34.652344 40.335938 34.582031 C 40.1875 34.539062 40.039062 34.492188 39.886719 34.457031 C 39.628906 34.394531 39.367188 34.347656 39.101562 34.304688 C 38.972656 34.285156 38.84375 34.253906 38.710938 34.238281 C 38.3125 34.191406 37.910156 34.164062 37.5 34.164062 C 37.089844 34.164062 36.6875 34.191406 36.289062 34.238281 C 36.152344 34.253906 36.023438 34.285156 35.886719 34.304688 C 35.628906 34.347656 35.371094 34.390625 35.117188 34.453125 C 34.957031 34.492188 34.800781 34.542969 34.644531 34.589844 C 34.425781 34.652344 34.210938 34.71875 33.996094 34.796875 C 33.828125 34.859375 33.660156 34.933594 33.492188 35.003906 C 33.308594 35.085938 33.121094 35.171875 32.941406 35.261719 C 32.765625 35.351562 32.59375 35.449219 32.421875 35.546875 C 32.265625 35.640625 32.109375 35.738281 31.957031 35.839844 C 31.78125 35.957031 31.605469 36.078125 31.4375 36.207031 C 31.304688 36.308594 31.179688 36.417969 31.050781 36.523438 C 30.878906 36.667969 30.710938 36.8125 30.550781 36.96875 C 30.429688 37.082031 30.320312 37.210938 30.207031 37.332031 C 30.054688 37.496094 29.902344 37.652344 29.761719 37.824219 C 29.753906 37.835938 29.742188 37.847656 29.730469 37.859375 C 29.710938 37.847656 29.691406 37.839844 29.671875 37.828125 C 29.140625 37.496094 28.589844 37.199219 28.023438 36.929688 C 27.964844 36.898438 27.910156 36.863281 27.847656 36.832031 C 27.917969 36.765625 27.976562 36.6875 28.042969 36.621094 C 28.136719 36.527344 28.222656 36.429688 28.308594 36.332031 C 28.484375 36.132812 28.652344 35.925781 28.808594 35.714844 C 28.878906 35.625 28.953125 35.53125 29.019531 35.4375 C 29.230469 35.136719 29.425781 34.828125 29.601562 34.507812 C 29.605469 34.5 29.613281 34.492188 29.617188 34.484375 C 29.796875 34.15625 29.949219 33.8125 30.09375 33.464844 C 30.136719 33.359375 30.167969 33.25 30.207031 33.140625 C 30.300781 32.890625 30.382812 32.640625 30.453125 32.382812 C 30.488281 32.257812 30.519531 32.128906 30.550781 32.003906 C 30.609375 31.742188 30.660156 31.484375 30.699219 31.21875 C 30.71875 31.101562 30.738281 30.984375 30.753906 30.863281 C 30.796875 30.484375 30.824219 30.101562 30.824219 29.710938 C 30.824219 29.296875 30.789062 28.882812 30.738281 28.46875 C 30.726562 28.390625 30.71875 28.316406 30.710938 28.238281 C 30.648438 27.84375 30.566406 27.453125 30.460938 27.070312 C 30.441406 26.996094 30.417969 26.921875 30.398438 26.851562 C 30.28125 26.464844 30.148438 26.082031 29.988281 25.714844 C 29.984375 25.703125 29.980469 25.691406 29.972656 25.679688 C 29.808594 25.300781 29.613281 24.941406 29.402344 24.585938 C 29.378906 24.546875 29.363281 24.503906 29.335938 24.464844 C 30.328125 23.777344 31.390625 23.222656 32.515625 22.816406 Z M 45.226562 45.15625 C 44.941406 47.414062 43.683594 49.4375 41.738281 50.699219 C 40.75 51.347656 39.65625 51.75 38.441406 51.898438 C 37.890625 51.984375 37.144531 51.988281 36.523438 51.894531 C 36.199219 51.855469 35.886719 51.792969 35.578125 51.714844 C 34.753906 51.507812 33.976562 51.171875 33.253906 50.695312 C 31.035156 49.257812 29.710938 46.820312 29.710938 44.175781 C 29.710938 42.796875 30.074219 41.453125 30.796875 40.21875 C 30.828125 40.15625 30.867188 40.09375 30.910156 40.03125 C 30.921875 40.015625 30.929688 40.003906 30.941406 39.984375 C 32.367188 37.734375 34.816406 36.386719 37.5 36.386719 C 40.183594 36.386719 42.632812 37.734375 44.085938 40.03125 C 44.132812 40.09375 44.171875 40.15625 44.238281 40.289062 C 44.925781 41.453125 45.289062 42.796875 45.289062 44.175781 C 45.289062 44.503906 45.265625 44.832031 45.226562 45.15625 Z M 13.023438 29.710938 C 13.023438 25.417969 16.519531 21.925781 20.8125 21.925781 C 23.21875 21.925781 25.449219 23.011719 26.9375 24.902344 C 28.007812 26.269531 28.601562 27.976562 28.601562 29.710938 C 28.601562 30.042969 28.578125 30.371094 28.539062 30.691406 C 28.253906 32.949219 26.996094 34.976562 25.050781 36.238281 C 24.527344 36.582031 23.933594 36.871094 23.296875 37.089844 C 23.191406 37.125 23.085938 37.160156 22.933594 37.199219 C 22.683594 37.273438 22.445312 37.328125 22.097656 37.382812 C 22.035156 37.398438 21.972656 37.40625 21.910156 37.410156 L 21.65625 37.457031 C 21.613281 37.457031 21.558594 37.457031 21.511719 37.464844 C 21.472656 37.46875 21.425781 37.476562 21.3125 37.480469 C 20.894531 37.503906 20.476562 37.496094 20.0625 37.457031 C 19.648438 37.417969 19.238281 37.34375 18.835938 37.238281 C 18.828125 37.238281 18.824219 37.234375 18.816406 37.230469 C 18.421875 37.128906 18.039062 36.996094 17.667969 36.832031 C 17.492188 36.753906 17.335938 36.648438 17.167969 36.5625 C 16.96875 36.453125 16.757812 36.359375 16.566406 36.234375 C 14.347656 34.792969 13.023438 32.355469 13.023438 29.710938 Z M 6.351562 51.960938 C 6.351562 45.863281 10.136719 40.46875 15.828125 38.390625 C 15.972656 38.476562 16.132812 38.539062 16.285156 38.613281 C 16.453125 38.703125 16.621094 38.792969 16.796875 38.867188 C 17.054688 38.980469 17.316406 39.074219 17.582031 39.164062 C 17.75 39.222656 17.914062 39.289062 18.089844 39.335938 C 18.382812 39.421875 18.6875 39.480469 18.988281 39.535156 C 19.136719 39.566406 19.28125 39.605469 19.433594 39.625 C 19.886719 39.6875 20.347656 39.726562 20.8125 39.726562 C 21.023438 39.726562 21.234375 39.714844 21.378906 39.703125 C 21.503906 39.703125 21.617188 39.691406 21.734375 39.679688 C 21.886719 39.671875 22.03125 39.65625 22.09375 39.632812 L 22.207031 39.617188 C 22.335938 39.601562 22.464844 39.582031 22.503906 39.570312 C 22.855469 39.519531 23.195312 39.445312 23.515625 39.347656 C 23.679688 39.308594 23.84375 39.253906 24.011719 39.199219 C 24.382812 39.070312 24.738281 38.917969 25.082031 38.757812 C 25.191406 38.703125 25.292969 38.648438 25.394531 38.597656 C 25.523438 38.527344 25.660156 38.46875 25.785156 38.398438 C 25.859375 38.425781 25.933594 38.453125 26.007812 38.480469 C 26.335938 38.605469 26.660156 38.746094 26.976562 38.894531 C 27.082031 38.941406 27.1875 38.984375 27.289062 39.039062 C 27.691406 39.238281 28.089844 39.460938 28.472656 39.699219 C 28.492188 39.710938 28.507812 39.726562 28.527344 39.738281 C 28.472656 39.847656 28.433594 39.964844 28.382812 40.078125 C 28.3125 40.230469 28.246094 40.382812 28.1875 40.535156 C 28.09375 40.769531 28.015625 41.011719 27.9375 41.253906 C 27.890625 41.40625 27.84375 41.558594 27.804688 41.710938 C 27.734375 41.980469 27.683594 42.253906 27.640625 42.527344 C 27.617188 42.660156 27.585938 42.792969 27.570312 42.929688 C 27.519531 43.339844 27.488281 43.757812 27.488281 44.175781 C 27.488281 44.5625 27.515625 44.949219 27.558594 45.328125 C 27.574219 45.449219 27.59375 45.5625 27.613281 45.683594 C 27.652344 45.945312 27.699219 46.207031 27.761719 46.464844 C 27.792969 46.59375 27.824219 46.722656 27.859375 46.847656 C 27.929688 47.105469 28.011719 47.355469 28.101562 47.601562 C 28.140625 47.710938 28.175781 47.824219 28.21875 47.933594 C 28.359375 48.277344 28.515625 48.617188 28.691406 48.945312 C 28.703125 48.964844 28.714844 48.980469 28.722656 48.996094 C 28.894531 49.308594 29.082031 49.605469 29.285156 49.894531 C 29.359375 49.996094 29.433594 50.097656 29.511719 50.195312 C 29.664062 50.398438 29.824219 50.59375 29.992188 50.785156 C 30.082031 50.890625 30.175781 50.992188 30.273438 51.09375 C 30.339844 51.160156 30.398438 51.234375 30.464844 51.296875 C 30.453125 51.304688 30.445312 51.308594 30.4375 51.3125 C 30.367188 51.34375 30.304688 51.386719 30.234375 51.417969 C 29.742188 51.65625 29.261719 51.917969 28.800781 52.199219 C 28.621094 52.308594 28.457031 52.425781 28.28125 52.539062 C 27.9375 52.769531 27.597656 53.007812 27.269531 53.261719 C 27.089844 53.402344 26.914062 53.546875 26.742188 53.695312 C 26.433594 53.953125 26.136719 54.222656 25.851562 54.503906 C 25.691406 54.65625 25.535156 54.808594 25.382812 54.96875 C 25.070312 55.296875 24.78125 55.640625 24.5 55.988281 C 24.394531 56.121094 24.28125 56.242188 24.183594 56.375 C 23.8125 56.863281 23.464844 57.375 23.152344 57.90625 C 23.085938 58.011719 23.035156 58.128906 22.972656 58.238281 C 22.730469 58.667969 22.503906 59.105469 22.296875 59.558594 C 22.210938 59.753906 22.132812 59.957031 22.050781 60.15625 C 21.957031 60.390625 21.847656 60.621094 21.761719 60.863281 L 6.351562 60.863281 Z M 51.960938 68.648438 L 23.039062 68.648438 L 23.039062 66.425781 C 23.039062 65.011719 23.238281 63.621094 23.636719 62.292969 C 23.804688 61.734375 24.003906 61.191406 24.230469 60.664062 C 24.308594 60.484375 24.410156 60.316406 24.496094 60.140625 C 24.660156 59.800781 24.820312 59.460938 25.011719 59.136719 C 25.125 58.9375 25.261719 58.753906 25.386719 58.5625 C 25.574219 58.277344 25.753906 57.988281 25.957031 57.71875 C 26.101562 57.523438 26.269531 57.347656 26.425781 57.160156 C 26.632812 56.914062 26.832031 56.660156 27.058594 56.429688 C 27.230469 56.246094 27.417969 56.082031 27.601562 55.910156 C 27.832031 55.695312 28.058594 55.476562 28.300781 55.277344 C 28.496094 55.113281 28.710938 54.96875 28.914062 54.816406 C 29.164062 54.632812 29.414062 54.445312 29.675781 54.273438 C 29.894531 54.132812 30.125 54.011719 30.351562 53.882812 C 30.621094 53.730469 30.886719 53.574219 31.167969 53.4375 C 31.40625 53.324219 31.652344 53.222656 31.898438 53.121094 C 32.109375 53.03125 32.324219 52.945312 32.542969 52.867188 C 32.628906 52.917969 32.722656 52.957031 32.8125 53.007812 C 32.9375 53.074219 33.0625 53.136719 33.191406 53.199219 C 33.386719 53.296875 33.589844 53.378906 33.792969 53.460938 C 33.917969 53.511719 34.042969 53.566406 34.171875 53.609375 C 34.394531 53.6875 34.621094 53.753906 34.851562 53.816406 C 34.960938 53.847656 35.070312 53.882812 35.179688 53.910156 C 35.523438 53.988281 35.867188 54.054688 36.21875 54.097656 C 36.601562 54.15625 37.035156 54.1875 37.5 54.1875 C 37.964844 54.1875 38.398438 54.15625 38.75 54.101562 C 39.105469 54.058594 39.457031 53.992188 39.804688 53.910156 C 39.917969 53.886719 40.03125 53.847656 40.144531 53.816406 C 40.371094 53.753906 40.601562 53.691406 40.824219 53.609375 C 40.957031 53.566406 41.085938 53.511719 41.214844 53.457031 C 41.414062 53.378906 41.609375 53.296875 41.804688 53.203125 C 41.933594 53.140625 42.066406 53.070312 42.195312 53.003906 C 42.28125 52.957031 42.375 52.914062 42.460938 52.867188 C 42.675781 52.945312 42.886719 53.03125 43.097656 53.117188 C 43.347656 53.222656 43.597656 53.320312 43.839844 53.4375 C 44.113281 53.574219 44.378906 53.726562 44.644531 53.878906 C 44.875 54.007812 45.109375 54.132812 45.328125 54.273438 C 45.589844 54.441406 45.832031 54.628906 46.082031 54.8125 C 46.289062 54.964844 46.503906 55.113281 46.703125 55.277344 C 46.945312 55.476562 47.167969 55.695312 47.394531 55.910156 C 47.582031 56.082031 47.773438 56.246094 47.945312 56.429688 C 48.167969 56.660156 48.367188 56.910156 48.574219 57.15625 C 48.730469 57.34375 48.898438 57.523438 49.046875 57.722656 C 49.246094 57.988281 49.425781 58.269531 49.605469 58.550781 C 49.734375 58.746094 49.875 58.933594 49.992188 59.136719 C 50.179688 59.453125 50.332031 59.789062 50.496094 60.121094 C 50.585938 60.304688 50.6875 60.480469 50.769531 60.667969 C 50.988281 61.167969 51.175781 61.683594 51.335938 62.214844 C 51.34375 62.242188 51.355469 62.265625 51.367188 62.292969 C 51.761719 63.621094 51.960938 65.011719 51.960938 66.425781 Z M 68.648438 60.863281 L 53.238281 60.863281 C 53.152344 60.617188 53.042969 60.386719 52.945312 60.152344 C 52.863281 59.953125 52.789062 59.753906 52.703125 59.558594 C 52.496094 59.105469 52.265625 58.664062 52.023438 58.230469 C 51.960938 58.125 51.910156 58.011719 51.847656 57.90625 C 51.53125 57.371094 51.1875 56.863281 50.816406 56.371094 C 50.714844 56.238281 50.605469 56.117188 50.5 55.992188 C 50.21875 55.636719 49.925781 55.292969 49.617188 54.96875 C 49.464844 54.808594 49.308594 54.65625 49.148438 54.503906 C 48.863281 54.222656 48.566406 53.953125 48.257812 53.691406 C 48.085938 53.542969 47.910156 53.398438 47.726562 53.257812 C 47.402344 53.007812 47.0625 52.769531 46.714844 52.539062 C 46.542969 52.425781 46.375 52.304688 46.199219 52.195312 C 45.734375 51.914062 45.257812 51.65625 44.761719 51.417969 C 44.695312 51.382812 44.632812 51.34375 44.5625 51.3125 C 44.554688 51.304688 44.542969 51.300781 44.535156 51.296875 C 44.605469 51.226562 44.664062 51.152344 44.730469 51.082031 C 44.824219 50.988281 44.910156 50.890625 45 50.792969 C 45.175781 50.59375 45.339844 50.390625 45.496094 50.179688 C 45.570312 50.089844 45.640625 49.996094 45.710938 49.898438 C 45.917969 49.601562 46.113281 49.292969 46.289062 48.972656 C 46.296875 48.964844 46.300781 48.957031 46.304688 48.949219 C 46.484375 48.621094 46.640625 48.277344 46.78125 47.929688 C 46.824219 47.824219 46.859375 47.714844 46.898438 47.605469 C 46.988281 47.359375 47.070312 47.105469 47.140625 46.847656 C 47.175781 46.722656 47.207031 46.59375 47.238281 46.46875 C 47.300781 46.207031 47.347656 45.945312 47.386719 45.683594 C 47.40625 45.566406 47.429688 45.449219 47.441406 45.328125 C 47.484375 44.949219 47.511719 44.5625 47.511719 44.175781 C 47.511719 43.753906 47.484375 43.335938 47.429688 42.925781 C 47.414062 42.789062 47.382812 42.65625 47.359375 42.523438 C 47.316406 42.25 47.265625 41.976562 47.199219 41.707031 C 47.160156 41.554688 47.109375 41.40625 47.0625 41.253906 C 46.988281 41.011719 46.914062 40.777344 46.824219 40.546875 C 46.765625 40.390625 46.695312 40.242188 46.628906 40.09375 C 46.574219 39.976562 46.53125 39.851562 46.472656 39.738281 C 46.492188 39.726562 46.507812 39.714844 46.523438 39.703125 C 46.910156 39.460938 47.304688 39.242188 47.710938 39.039062 C 47.8125 38.984375 47.921875 38.941406 48.023438 38.890625 C 48.34375 38.742188 48.664062 38.605469 48.992188 38.480469 C 49.066406 38.449219 49.140625 38.421875 49.21875 38.394531 C 49.34375 38.46875 49.476562 38.527344 49.609375 38.597656 C 49.710938 38.648438 49.8125 38.703125 49.917969 38.753906 C 50.265625 38.917969 50.621094 39.070312 51 39.199219 C 51.160156 39.253906 51.324219 39.304688 51.4375 39.332031 C 51.808594 39.441406 52.144531 39.519531 52.40625 39.550781 C 52.539062 39.582031 52.664062 39.597656 52.792969 39.617188 L 52.808594 39.613281 C 52.957031 39.652344 53.113281 39.671875 53.265625 39.675781 C 53.378906 39.691406 53.488281 39.703125 53.554688 39.699219 C 53.765625 39.714844 53.976562 39.726562 54.1875 39.726562 C 54.351562 39.726562 54.511719 39.695312 54.675781 39.6875 C 54.878906 39.679688 55.082031 39.667969 55.285156 39.644531 C 55.558594 39.613281 55.828125 39.570312 56.101562 39.515625 C 56.308594 39.476562 56.515625 39.433594 56.722656 39.378906 C 56.976562 39.3125 57.226562 39.230469 57.472656 39.144531 C 57.683594 39.070312 57.894531 38.996094 58.101562 38.90625 C 58.332031 38.808594 58.558594 38.695312 58.78125 38.578125 C 58.910156 38.511719 59.042969 38.460938 59.171875 38.390625 C 64.863281 40.46875 68.648438 45.863281 68.648438 51.960938 Z M 68.648438 60.863281"/></g></svg>