<svg xmlns="http://www.w3.org/2000/svg" width="150" viewBox="0 0 150 60" height="60" version="1.0"><defs><clipPath id="a"><path d="M 6 9.988281 L 46.5 9.988281 L 46.5 49.738281 L 6 49.738281 Z M 6 9.988281"/></clipPath><clipPath id="b"><path d="M 8 16 L 46 16 L 46 49.738281 L 8 49.738281 Z M 8 16"/></clipPath></defs><g clip-path="url(#a)"><path d="M 20.625 48.800781 C 12.445312 46.394531 6.476562 38.886719 6.476562 29.996094 C 6.476562 24.582031 8.6875 19.683594 12.269531 16.132812 C 15.847656 12.585938 20.789062 10.390625 26.25 10.390625 C 31.710938 10.390625 36.652344 12.585938 40.230469 16.132812 C 43.8125 19.683594 46.023438 24.582031 46.023438 29.996094 C 46.023438 34.246094 44.664062 38.175781 42.347656 41.386719 L 42.683594 41.625 C 45.046875 38.347656 46.4375 34.332031 46.4375 29.996094 C 46.4375 18.941406 37.398438 9.980469 26.25 9.980469 C 15.101562 9.980469 6.0625 18.941406 6.0625 29.996094 C 6.0625 39.074219 12.15625 46.738281 20.507812 49.191406 L 20.625 48.800781"/></g><g clip-path="url(#b)"><path d="M 42.683594 41.40625 C 42.609375 41.28125 42.566406 41.09375 42.566406 40.847656 C 42.566406 40.371094 42.722656 39.691406 42.96875 38.894531 C 43.332031 37.695312 43.882812 36.214844 44.34375 34.644531 C 44.804688 33.070312 45.175781 31.402344 45.179688 29.8125 C 45.179688 28.878906 45.050781 27.96875 44.730469 27.125 C 44.410156 26.277344 43.902344 25.496094 43.148438 24.828125 C 41.839844 23.667969 40.589844 22.734375 39.515625 21.972656 C 38.445312 21.207031 37.550781 20.613281 36.960938 20.128906 C 36.375 19.648438 35.765625 19.015625 35.003906 18.378906 C 34.242188 17.738281 33.320312 17.09375 32.097656 16.597656 C 31.179688 16.226562 29.988281 16.042969 28.699219 16.042969 C 27.0625 16.042969 25.261719 16.339844 23.648438 16.9375 C 22.039062 17.539062 20.613281 18.445312 19.746094 19.691406 C 19.546875 19.980469 19.328125 20.410156 19.097656 20.917969 C 18.753906 21.679688 18.386719 22.621094 18.050781 23.480469 C 17.710938 24.339844 17.40625 25.121094 17.191406 25.554688 C 17.171875 25.601562 17.121094 25.671875 17.039062 25.75 C 16.890625 25.902344 16.652344 26.089844 16.347656 26.296875 C 15.816406 26.65625 15.09375 27.074219 14.3125 27.511719 C 13.132812 28.167969 11.820312 28.863281 10.78125 29.484375 C 10.265625 29.792969 9.816406 30.085938 9.484375 30.34375 C 9.320312 30.476562 9.183594 30.597656 9.078125 30.71875 C 9.027344 30.78125 8.984375 30.839844 8.949219 30.90625 C 8.914062 30.96875 8.890625 31.035156 8.882812 31.109375 C 8.878906 31.132812 8.878906 31.15625 8.878906 31.179688 C 8.878906 31.277344 8.894531 31.382812 8.925781 31.496094 C 8.984375 31.707031 9.089844 31.953125 9.226562 32.230469 C 9.714844 33.203125 10.65625 34.550781 11.683594 35.707031 C 12.195312 36.285156 12.726562 36.816406 13.238281 37.222656 C 13.492188 37.425781 13.742188 37.601562 13.984375 37.734375 C 14.226562 37.867188 14.457031 37.960938 14.683594 38.003906 C 15.191406 38.097656 15.625 38.136719 16.003906 38.136719 C 16.554688 38.136719 16.988281 38.054688 17.371094 37.953125 C 17.75 37.847656 18.078125 37.726562 18.414062 37.644531 C 18.628906 37.589844 18.957031 37.550781 19.347656 37.527344 C 19.933594 37.488281 20.667969 37.472656 21.410156 37.445312 C 22.152344 37.417969 22.910156 37.378906 23.554688 37.289062 C 25.277344 37.042969 26.734375 36.320312 26.742188 36.316406 L 26.65625 36.144531 L 26.613281 36.332031 L 26.617188 36.332031 C 26.703125 36.351562 27.472656 36.542969 28.433594 36.941406 C 29.394531 37.339844 30.546875 37.945312 31.394531 38.785156 C 31.492188 38.882812 31.59375 39.03125 31.683594 39.214844 C 31.820312 39.492188 31.941406 39.855469 32.019531 40.277344 C 32.101562 40.703125 32.148438 41.1875 32.148438 41.703125 C 32.148438 43.308594 31.703125 45.226562 30.527344 46.730469 C 29.941406 47.484375 29.175781 48.132812 28.1875 48.597656 C 27.199219 49.0625 25.984375 49.34375 24.503906 49.34375 C 23.371094 49.34375 22.078125 49.179688 20.613281 48.808594 C 20.507812 48.78125 20.402344 48.84375 20.375 48.949219 C 20.351562 49.050781 20.414062 49.15625 20.515625 49.183594 C 22.007812 49.5625 23.332031 49.730469 24.503906 49.730469 C 26.035156 49.730469 27.308594 49.441406 28.355469 48.949219 C 29.925781 48.210938 30.976562 47.019531 31.625 45.707031 C 32.277344 44.394531 32.539062 42.957031 32.539062 41.703125 C 32.539062 40.984375 32.453125 40.324219 32.304688 39.777344 C 32.230469 39.5 32.140625 39.253906 32.035156 39.042969 C 31.929688 38.832031 31.808594 38.652344 31.667969 38.511719 C 30.734375 37.589844 29.496094 36.953125 28.488281 36.546875 C 27.484375 36.136719 26.707031 35.957031 26.699219 35.953125 C 26.65625 35.945312 26.609375 35.949219 26.570312 35.96875 L 26.566406 35.972656 C 26.488281 36.007812 25.09375 36.679688 23.5 36.90625 C 22.671875 37.023438 21.625 37.054688 20.664062 37.082031 C 20.183594 37.097656 19.722656 37.113281 19.320312 37.140625 C 18.917969 37.167969 18.578125 37.203125 18.320312 37.269531 C 17.953125 37.359375 17.625 37.484375 17.269531 37.578125 C 16.910156 37.675781 16.515625 37.75 16.003906 37.75 C 15.652344 37.75 15.242188 37.714844 14.753906 37.625 C 14.550781 37.585938 14.300781 37.480469 14.027344 37.3125 C 13.550781 37.019531 13.007812 36.542969 12.464844 35.984375 C 11.652344 35.144531 10.847656 34.109375 10.246094 33.195312 C 9.945312 32.738281 9.695312 32.308594 9.527344 31.957031 C 9.441406 31.777344 9.375 31.617188 9.332031 31.484375 C 9.285156 31.351562 9.265625 31.242188 9.269531 31.179688 C 9.269531 31.167969 9.269531 31.160156 9.269531 31.148438 C 9.269531 31.136719 9.285156 31.085938 9.339844 31.019531 C 9.429688 30.890625 9.628906 30.714844 9.894531 30.523438 C 10.359375 30.179688 11.039062 29.773438 11.800781 29.339844 C 12.945312 28.695312 14.269531 27.996094 15.359375 27.363281 C 15.90625 27.046875 16.390625 26.746094 16.769531 26.476562 C 16.957031 26.339844 17.121094 26.210938 17.25 26.089844 C 17.378906 25.964844 17.480469 25.851562 17.542969 25.722656 C 17.695312 25.414062 17.878906 24.964844 18.085938 24.445312 C 18.398438 23.664062 18.757812 22.722656 19.109375 21.878906 C 19.285156 21.457031 19.457031 21.058594 19.621094 20.71875 C 19.785156 20.378906 19.9375 20.097656 20.066406 19.910156 C 20.867188 18.757812 22.226562 17.882812 23.785156 17.300781 C 25.347656 16.71875 27.109375 16.429688 28.699219 16.429688 C 29.953125 16.429688 31.097656 16.609375 31.949219 16.957031 C 33.125 17.433594 34.007812 18.050781 34.753906 18.671875 C 35.496094 19.292969 36.097656 19.925781 36.714844 20.429688 C 37.328125 20.929688 38.222656 21.527344 39.289062 22.285156 C 40.355469 23.042969 41.59375 23.96875 42.886719 25.117188 C 43.59375 25.746094 44.066406 26.46875 44.363281 27.257812 C 44.664062 28.050781 44.789062 28.914062 44.789062 29.8125 C 44.789062 31.855469 44.144531 34.082031 43.492188 36.058594 C 43.167969 37.042969 42.839844 37.96875 42.59375 38.78125 C 42.347656 39.59375 42.179688 40.292969 42.179688 40.847656 C 42.179688 41.136719 42.222656 41.390625 42.347656 41.601562 C 42.402344 41.695312 42.523438 41.726562 42.617188 41.671875 C 42.707031 41.617188 42.738281 41.5 42.683594 41.40625"/></g><path d="M 32.421875 19.097656 C 32.902344 19.097656 33.449219 19.261719 34.015625 19.617188 C 34.582031 19.96875 35.164062 20.507812 35.714844 21.25 C 35.761719 21.3125 35.84375 21.414062 35.953125 21.554688 C 36.335938 22.035156 37.050781 22.929688 37.671875 23.828125 C 37.980469 24.277344 38.265625 24.726562 38.46875 25.121094 C 38.570312 25.320312 38.652344 25.503906 38.707031 25.664062 C 38.761719 25.824219 38.789062 25.960938 38.789062 26.054688 C 38.789062 26.128906 38.773438 26.175781 38.757812 26.199219 C 38.613281 26.417969 38.417969 26.554688 38.164062 26.644531 C 37.910156 26.730469 37.601562 26.765625 37.269531 26.765625 C 36.859375 26.765625 36.410156 26.714844 35.980469 26.660156 C 35.550781 26.605469 35.144531 26.550781 34.792969 26.550781 C 34.566406 26.550781 34.363281 26.574219 34.183594 26.652344 C 33.984375 26.742188 33.65625 26.835938 33.277344 26.90625 C 32.898438 26.972656 32.464844 27.015625 32.046875 27.015625 C 31.640625 27.015625 31.25 26.976562 30.933594 26.878906 C 30.777344 26.828125 30.640625 26.769531 30.53125 26.695312 C 30.421875 26.625 30.34375 26.539062 30.285156 26.449219 C 30.226562 26.34375 30.164062 26.1875 30.105469 26 C 30.007812 25.667969 29.921875 25.234375 29.84375 24.769531 C 29.730469 24.070312 29.628906 23.296875 29.511719 22.660156 C 29.453125 22.34375 29.390625 22.058594 29.316406 21.828125 C 29.277344 21.710938 29.238281 21.609375 29.191406 21.519531 C 29.140625 21.433594 29.085938 21.355469 29.003906 21.292969 C 28.832031 21.171875 28.65625 21.117188 28.492188 21.117188 C 28.375 21.117188 28.273438 21.144531 28.183594 21.183594 C 28.046875 21.242188 27.949219 21.328125 27.878906 21.394531 C 27.8125 21.460938 27.773438 21.515625 27.769531 21.523438 L 28.09375 21.742188 L 28.082031 21.734375 L 28.089844 21.742188 L 28.09375 21.742188 L 28.082031 21.734375 L 28.089844 21.742188 C 28.097656 21.734375 28.148438 21.667969 28.222656 21.609375 C 28.257812 21.582031 28.300781 21.554688 28.347656 21.535156 C 28.394531 21.515625 28.441406 21.503906 28.492188 21.503906 C 28.570312 21.503906 28.660156 21.527344 28.777344 21.609375 C 28.78125 21.613281 28.800781 21.632812 28.824219 21.667969 C 28.867188 21.734375 28.917969 21.851562 28.964844 22.007812 C 29.046875 22.277344 29.117188 22.648438 29.1875 23.066406 C 29.289062 23.691406 29.382812 24.414062 29.5 25.0625 C 29.554688 25.390625 29.617188 25.695312 29.691406 25.964844 C 29.765625 26.230469 29.84375 26.460938 29.949219 26.640625 C 30.039062 26.792969 30.167969 26.917969 30.316406 27.015625 C 30.539062 27.164062 30.808594 27.257812 31.105469 27.320312 C 31.402344 27.378906 31.722656 27.402344 32.046875 27.402344 C 32.492188 27.402344 32.945312 27.355469 33.347656 27.285156 C 33.75 27.210938 34.097656 27.113281 34.347656 27.003906 C 34.4375 26.960938 34.59375 26.9375 34.792969 26.9375 C 35.101562 26.9375 35.503906 26.988281 35.933594 27.042969 C 36.363281 27.097656 36.824219 27.152344 37.269531 27.152344 C 37.628906 27.152344 37.976562 27.117188 38.292969 27.007812 C 38.609375 26.898438 38.890625 26.707031 39.085938 26.410156 C 39.152344 26.304688 39.179688 26.179688 39.179688 26.054688 C 39.179688 25.871094 39.128906 25.671875 39.046875 25.457031 C 38.90625 25.082031 38.667969 24.648438 38.378906 24.195312 C 37.953125 23.519531 37.421875 22.804688 36.96875 22.214844 C 36.742188 21.921875 36.535156 21.660156 36.371094 21.453125 C 36.203125 21.246094 36.082031 21.089844 36.027344 21.019531 C 35.453125 20.246094 34.839844 19.671875 34.222656 19.289062 C 33.609375 18.90625 32.992188 18.710938 32.421875 18.710938 L 32.421875 19.097656"/><g fill="#545454"><g><g><path d="M 18.105469 -10.207031 C 18.105469 -11.679688 17.804688 -13.03125 17.261719 -14.289062 C 16.722656 -15.550781 15.972656 -16.632812 15.042969 -17.53125 C 14.082031 -18.433594 12.96875 -19.125 11.707031 -19.632812 C 10.417969 -20.144531 9.035156 -20.414062 7.59375 -20.414062 L 2.25 -20.414062 L 2.25 0 L 7.59375 0 C 9.035156 0 10.417969 -0.238281 11.707031 -0.75 C 12.96875 -1.261719 14.082031 -1.980469 15.042969 -2.882812 C 15.972656 -3.78125 16.722656 -4.832031 17.261719 -6.09375 C 17.804688 -7.355469 18.105469 -8.707031 18.105469 -10.207031 Z M 16.0625 -10.207031 C 16.0625 -7.867188 15.222656 -5.914062 13.601562 -4.382812 C 11.980469 -2.851562 9.996094 -2.101562 7.65625 -2.101562 L 4.351562 -2.101562 L 4.351562 -18.3125 L 7.65625 -18.3125 C 9.996094 -18.3125 11.980469 -17.53125 13.601562 -16.03125 C 15.222656 -14.472656 16.0625 -12.519531 16.0625 -10.207031 Z M 16.0625 -10.207031" transform="translate(54.266 24.447)"/></g></g></g><g fill="#545454"><g><g><path d="M 13.058594 -6.664062 C 13.058594 -5.34375 12.578125 -4.234375 11.648438 -3.300781 C 10.6875 -2.339844 9.578125 -1.890625 8.257812 -1.890625 C 6.933594 -1.890625 5.792969 -2.339844 4.863281 -3.300781 C 3.902344 -4.234375 3.453125 -5.34375 3.453125 -6.664062 C 3.453125 -7.984375 3.902344 -9.097656 4.863281 -10.058594 C 5.792969 -10.988281 6.933594 -11.46875 8.257812 -11.46875 C 9.578125 -11.46875 10.6875 -10.988281 11.648438 -10.058594 C 12.578125 -9.097656 13.058594 -7.984375 13.058594 -6.664062 Z M 15.160156 -6.664062 C 15.160156 -8.554688 14.472656 -10.175781 13.121094 -11.527344 C 11.769531 -12.878906 10.148438 -13.570312 8.257812 -13.570312 C 6.335938 -13.570312 4.714844 -12.878906 3.363281 -11.527344 C 2.011719 -10.175781 1.351562 -8.554688 1.351562 -6.664062 C 1.351562 -4.742188 2.011719 -3.121094 3.363281 -1.800781 C 4.714844 -0.449219 6.363281 0.210938 8.257812 0.210938 C 10.117188 0.210938 11.769531 -0.449219 13.121094 -1.800781 C 14.472656 -3.121094 15.160156 -4.742188 15.160156 -6.664062 Z M 15.160156 -6.664062" transform="translate(73.714 24.447)"/></g></g></g><g fill="#545454"><g><g><path d="M 12.941406 -6.605469 C 12.941406 -5.3125 12.488281 -4.171875 11.589844 -3.242188 C 10.6875 -2.28125 9.578125 -1.800781 8.285156 -1.800781 C 6.996094 -1.800781 5.882812 -2.28125 4.984375 -3.242188 C 4.082031 -4.171875 3.632812 -5.285156 3.632812 -6.605469 C 3.632812 -7.894531 4.082031 -9.007812 4.984375 -9.96875 C 5.882812 -10.929688 6.996094 -11.410156 8.285156 -11.410156 C 9.578125 -11.410156 10.6875 -10.929688 11.589844 -9.96875 C 12.488281 -9.007812 12.941406 -7.867188 12.941406 -6.605469 Z M 3.574219 1.800781 L 1.410156 1.800781 C 1.652344 3.210938 2.28125 4.441406 3.363281 5.492188 C 4.683594 6.84375 6.304688 7.503906 8.195312 7.503906 C 10.058594 7.503906 11.679688 6.84375 13.03125 5.492188 C 14.351562 4.171875 15.042969 2.550781 15.042969 0.660156 L 15.042969 -13.210938 L 12.941406 -13.210938 L 12.941406 -10.988281 C 12.820312 -11.109375 12.699219 -11.257812 12.578125 -11.410156 C 11.257812 -12.789062 9.726562 -13.511719 7.984375 -13.511719 C 6.125 -13.511719 4.59375 -12.789062 3.332031 -11.410156 C 2.132812 -10.027344 1.53125 -8.4375 1.53125 -6.605469 C 1.53125 -4.742188 2.132812 -3.152344 3.332031 -1.800781 C 4.59375 -0.390625 6.125 0.300781 7.984375 0.300781 C 9.789062 0.300781 11.320312 -0.390625 12.578125 -1.800781 C 12.699219 -1.921875 12.820312 -2.070312 12.941406 -2.191406 L 12.941406 0.660156 C 12.941406 1.980469 12.460938 3.09375 11.527344 4.023438 C 10.597656 4.953125 9.488281 5.402344 8.195312 5.402344 C 6.875 5.402344 5.765625 4.953125 4.832031 4.023438 C 4.171875 3.363281 3.753906 2.640625 3.574219 1.800781 Z M 3.574219 1.800781" transform="translate(90.22 24.447)"/></g></g></g><g fill="#545454"><g><g><path d="M 17.722656 1.585938 L 22.273438 -19.59375 L 20.226562 -19.59375 L 17.171875 -5.359375 L 11.296875 -20.746094 L 5.386719 -5.359375 L 2.363281 -19.59375 L 0.289062 -19.59375 L 4.871094 1.585938 L 11.296875 -15.472656 Z M 17.722656 1.585938" transform="translate(55.766 55.618)"/></g></g></g><g fill="#545454"><g><g><path d="M 12.246094 -6.339844 C 12.246094 -5.101562 11.8125 -4.003906 10.949219 -3.113281 C 10.085938 -2.191406 9.019531 -1.730469 7.78125 -1.730469 C 6.511719 -1.730469 5.445312 -2.191406 4.582031 -3.113281 C 3.71875 -4.003906 3.3125 -5.101562 3.3125 -6.339844 C 3.3125 -7.550781 3.71875 -8.644531 4.582031 -9.566406 C 5.445312 -10.488281 6.511719 -10.949219 7.78125 -10.949219 C 9.019531 -10.949219 10.085938 -10.488281 10.949219 -9.566406 C 11.8125 -8.644531 12.246094 -7.550781 12.246094 -6.339844 Z M 14.261719 0 L 14.261719 -12.679688 L 12.246094 -12.679688 L 12.246094 -10.488281 C 12.132812 -10.660156 11.988281 -10.804688 11.871094 -10.949219 C 10.660156 -12.273438 9.191406 -12.964844 7.464844 -12.964844 C 5.707031 -12.964844 4.234375 -12.273438 3.027344 -10.949219 C 1.871094 -9.625 1.296875 -8.097656 1.296875 -6.339844 C 1.296875 -4.554688 1.871094 -3.027344 3.027344 -1.730469 C 4.234375 -0.375 5.707031 0.289062 7.464844 0.289062 C 9.191406 0.289062 10.660156 -0.375 11.871094 -1.730469 C 11.988281 -1.84375 12.132812 -1.988281 12.246094 -2.160156 L 12.246094 0 Z M 14.261719 0" transform="translate(78.32 55.618)"/></g></g></g><g fill="#545454"><g><g><path d="M 4.179688 0 L 4.179688 -21.609375 L 2.160156 -21.609375 L 2.160156 0 Z M 4.179688 0" transform="translate(94.739 55.618)"/></g></g></g><g fill="#545454"><g><g><path d="M 4.179688 0 L 4.179688 -6.078125 L 9.164062 0 L 11.84375 0 L 6.28125 -6.539062 L 11.496094 -12.707031 L 8.816406 -12.707031 L 4.179688 -6.972656 L 4.179688 -21.609375 L 2.160156 -21.609375 L 2.160156 0 Z M 4.179688 0" transform="translate(101.076 55.618)"/></g></g></g><g fill="#545454"><g><g><path d="M 14.550781 -6.628906 C 14.550781 -8.355469 13.859375 -9.855469 12.535156 -11.152344 C 11.238281 -12.390625 9.683594 -13.023438 7.925781 -13.023438 C 6.078125 -13.023438 4.523438 -12.363281 3.226562 -11.066406 C 1.929688 -9.769531 1.296875 -8.210938 1.296875 -6.398438 C 1.296875 -4.554688 1.929688 -2.996094 3.226562 -1.730469 C 3.832031 -1.125 4.523438 -0.664062 5.332031 -0.316406 C 6.136719 0.0273438 7.089844 0.203125 8.210938 0.203125 C 9.335938 0.203125 10.429688 -0.144531 11.527344 -0.835938 C 12.621094 -1.527344 13.429688 -2.507812 13.976562 -3.71875 L 11.671875 -3.71875 C 11.210938 -3.113281 10.660156 -2.652344 10 -2.304688 C 9.335938 -1.960938 8.644531 -1.816406 7.925781 -1.816406 C 6.828125 -1.816406 5.847656 -2.160156 4.984375 -2.882812 C 4.121094 -3.574219 3.574219 -4.464844 3.398438 -5.5625 L 14.550781 -5.5625 Z M 12.417969 -7.289062 L 3.429688 -7.289062 C 3.542969 -7.808594 3.746094 -8.296875 4.035156 -8.757812 C 4.957031 -10.257812 6.253906 -11.007812 7.925781 -11.007812 C 8.992188 -11.007812 9.941406 -10.660156 10.777344 -9.96875 C 11.640625 -9.25 12.160156 -8.355469 12.417969 -7.289062 Z M 12.417969 -7.289062" transform="translate(113.202 55.618)"/></g></g></g><g fill="#545454"><g><g><path d="M 8.671875 -10.054688 L 8.671875 -12.679688 C 8.269531 -12.851562 7.835938 -12.9375 7.40625 -12.9375 C 5.964844 -12.9375 4.925781 -12.132812 4.265625 -10.574219 L 4.179688 -10.054688 L 4.179688 -12.679688 L 2.160156 -12.679688 L 2.160156 0 L 4.179688 0 L 4.179688 -6.339844 C 4.179688 -7.375 4.410156 -8.296875 4.898438 -9.132812 C 5.128906 -9.566406 5.445312 -9.941406 5.820312 -10.230469 C 6.195312 -10.515625 6.65625 -10.691406 7.175781 -10.691406 C 7.695312 -10.691406 8.183594 -10.460938 8.671875 -10.054688 Z M 8.671875 -10.054688" transform="translate(128.9 55.618)"/></g></g></g></svg>