<svg xmlns="http://www.w3.org/2000/svg" width="75" viewBox="0 0 75 75" height="75" version="1.0"><defs><clipPath id="a"><path d="M 13 27 L 62 27 L 62 68.699219 L 13 68.699219 Z M 13 27"/></clipPath><clipPath id="b"><path d="M 1.125 23 L 20 23 L 20 46 L 1.125 46 Z M 1.125 23"/></clipPath><clipPath id="c"><path d="M 16 4.949219 L 36 4.949219 L 36 28 L 16 28 Z M 16 4.949219"/></clipPath><clipPath id="d"><path d="M 54 23 L 73.875 23 L 73.875 46 L 54 46 Z M 54 23"/></clipPath><clipPath id="e"><path d="M 39 4.949219 L 59 4.949219 L 59 28 L 39 28 Z M 39 4.949219"/></clipPath></defs><g clip-path="url(#a)"><path fill="#666666" d="M 52.914062 43.363281 C 51.582031 42.78125 49.765625 40.132812 48.503906 36.921875 C 47.652344 34.757812 45.117188 28.371094 38.25 27.882812 C 38.109375 27.855469 37.96875 27.835938 37.824219 27.835938 C 37.753906 27.835938 37.691406 27.847656 37.621094 27.847656 C 37.550781 27.847656 37.488281 27.835938 37.417969 27.835938 C 37.273438 27.835938 37.132812 27.851562 36.992188 27.882812 C 30.125 28.371094 27.589844 34.757812 26.738281 36.921875 C 25.476562 40.132812 23.660156 42.78125 22.328125 43.363281 C 16.632812 45.847656 13.214844 51.863281 14.015625 57.992188 C 14.753906 63.613281 18.824219 67.648438 24.644531 68.523438 C 25.324219 68.625 26.007812 68.675781 26.695312 68.675781 C 28.566406 68.675781 30.4375 68.296875 32.195312 67.554688 C 32.964844 67.230469 33.660156 66.855469 34.332031 66.492188 C 35.496094 65.863281 36.515625 65.316406 37.621094 65.191406 C 38.730469 65.316406 39.746094 65.863281 40.910156 66.492188 C 41.582031 66.855469 42.277344 67.230469 43.046875 67.554688 C 44.808594 68.296875 46.675781 68.675781 48.546875 68.675781 C 49.234375 68.675781 49.917969 68.625 50.597656 68.523438 C 56.417969 67.648438 60.488281 63.613281 61.226562 57.992188 C 62.027344 51.863281 58.609375 45.847656 52.914062 43.363281 Z M 57.25 57.46875 C 56.746094 61.292969 54.039062 63.9375 50.003906 64.546875 C 48.222656 64.8125 46.300781 64.566406 44.601562 63.847656 C 44.011719 63.601562 43.429688 63.285156 42.8125 62.953125 C 41.539062 62.261719 40.117188 61.496094 38.382812 61.234375 C 38.175781 61.175781 37.960938 61.136719 37.738281 61.144531 C 37.699219 61.144531 37.660156 61.152344 37.621094 61.15625 C 37.582031 61.152344 37.542969 61.144531 37.503906 61.144531 C 37.285156 61.136719 37.078125 61.171875 36.878906 61.230469 C 35.136719 61.492188 33.707031 62.261719 32.429688 62.953125 C 31.8125 63.285156 31.230469 63.601562 30.640625 63.847656 C 28.9375 64.566406 27.019531 64.8125 25.238281 64.546875 C 21.203125 63.9375 18.496094 61.292969 17.992188 57.46875 C 17.523438 53.902344 19.183594 49.121094 23.929688 47.050781 C 27.34375 45.558594 29.640625 40.5 30.46875 38.394531 C 32.238281 33.90625 34.386719 31.941406 37.621094 31.863281 C 40.855469 31.941406 43.003906 33.90625 44.773438 38.394531 C 45.601562 40.5 47.898438 45.558594 51.3125 47.050781 C 56.058594 49.121094 57.71875 53.902344 57.25 57.46875 Z M 57.25 57.46875"/></g><g clip-path="url(#b)"><path fill="#666666" d="M 18.503906 41.054688 C 19.804688 38.75 20.273438 35.914062 19.820312 33.066406 C 18.953125 27.597656 14.816406 23.46875 10.199219 23.46875 C 9.785156 23.46875 9.367188 23.503906 8.960938 23.566406 C 6.4375 23.96875 4.285156 25.542969 2.898438 27.996094 C 1.597656 30.300781 1.128906 33.136719 1.582031 35.984375 C 2.449219 41.453125 6.589844 45.582031 11.207031 45.582031 C 11.617188 45.582031 12.035156 45.546875 12.441406 45.484375 C 14.964844 45.082031 17.117188 43.507812 18.503906 41.054688 Z M 15.015625 39.074219 C 14.242188 40.441406 13.105469 41.304688 11.8125 41.511719 C 9.007812 41.964844 6.136719 39.101562 5.539062 35.351562 C 5.230469 33.402344 5.53125 31.492188 6.386719 29.980469 C 7.160156 28.613281 8.296875 27.746094 9.589844 27.539062 C 9.792969 27.507812 9.996094 27.492188 10.199219 27.492188 C 12.820312 27.492188 15.308594 30.21875 15.863281 33.699219 C 16.171875 35.648438 15.871094 37.558594 15.015625 39.074219 Z M 15.015625 39.074219"/></g><g clip-path="url(#c)"><path fill="#666666" d="M 25.769531 27.175781 C 30.859375 27.175781 35.003906 22.195312 35.003906 16.078125 C 35.003906 9.957031 30.859375 4.980469 25.769531 4.980469 C 20.675781 4.980469 16.535156 9.957031 16.535156 16.078125 C 16.535156 22.195312 20.675781 27.175781 25.769531 27.175781 Z M 25.769531 9 C 28.652344 9 30.996094 12.175781 30.996094 16.078125 C 30.996094 19.980469 28.652344 23.152344 25.769531 23.152344 C 22.886719 23.152344 20.542969 19.980469 20.542969 16.078125 C 20.542969 12.175781 22.886719 9 25.769531 9 Z M 25.769531 9"/></g><g clip-path="url(#d)"><path fill="#666666" d="M 66.832031 23.738281 C 66.230469 23.59375 65.605469 23.519531 64.984375 23.519531 C 60.582031 23.519531 56.492188 27.234375 55.257812 32.351562 C 54.582031 35.152344 54.828125 38.015625 55.945312 40.417969 C 57.132812 42.972656 59.15625 44.710938 61.636719 45.3125 C 62.242188 45.457031 62.863281 45.53125 63.484375 45.53125 C 67.890625 45.53125 71.980469 41.816406 73.210938 36.699219 C 73.886719 33.898438 73.644531 31.035156 72.527344 28.632812 C 71.335938 26.078125 69.316406 24.339844 66.832031 23.738281 Z M 69.316406 35.753906 C 68.523438 39.035156 66.019531 41.511719 63.484375 41.511719 C 63.179688 41.511719 62.875 41.476562 62.578125 41.402344 C 61.304688 41.09375 60.242188 40.140625 59.578125 38.71875 C 58.84375 37.140625 58.691406 35.214844 59.15625 33.296875 C 59.945312 30.015625 62.453125 27.539062 64.984375 27.539062 C 65.289062 27.539062 65.59375 27.574219 65.890625 27.648438 C 67.164062 27.957031 68.230469 28.910156 68.894531 30.332031 C 69.625 31.910156 69.777344 33.835938 69.316406 35.753906 Z M 69.316406 35.753906"/></g><g clip-path="url(#e)"><path fill="#666666" d="M 49.167969 27.175781 C 54.261719 27.175781 58.402344 22.195312 58.402344 16.078125 C 58.402344 9.957031 54.261719 4.980469 49.167969 4.980469 C 44.074219 4.980469 39.933594 9.957031 39.933594 16.078125 C 39.933594 22.195312 44.074219 27.175781 49.167969 27.175781 Z M 49.167969 9 C 52.050781 9 54.394531 12.175781 54.394531 16.078125 C 54.394531 19.980469 52.050781 23.152344 49.167969 23.152344 C 46.285156 23.152344 43.941406 19.980469 43.941406 16.078125 C 43.941406 12.175781 46.285156 9 49.167969 9 Z M 49.167969 9"/></g></svg>